<svg width="428" height="428" viewBox="0 0 428 428" fill="none" xmlns="http://www.w3.org/2000/svg">
<circle cx="214" cy="214" r="214" fill="url(#paint0_linear_1_18)"/>
<circle cx="213" cy="179" r="179" fill="#FFE3D8"/>
<ellipse cx="214" cy="145" rx="146" ry="145" fill="#E3B6B1"/>
<path d="M149.661 294C145.464 294 141.974 292.424 139.193 289.272C136.412 286.12 135.282 282.457 135.802 278.283H173.181L185.248 230.111H211.57L230.035 156.383H148.356L151.132 133.294C151.823 128.055 154.127 123.711 158.043 120.261C161.975 116.828 166.569 115.111 171.824 115.111H192.657L193.399 108.722C195.105 94.5474 200.062 83.55 208.269 75.73C216.476 67.91 227.677 64 241.872 64C254.37 64 264.577 68.7278 272.494 78.1833C280.411 87.6389 283.768 98.6363 282.565 111.176L282.079 115.111H313.481C319.683 115.111 324.81 117.411 328.863 122.011C332.915 126.611 334.57 132.012 333.828 138.213L316.847 275.817C316.164 281.056 313.912 285.401 310.09 288.851C306.277 292.284 301.747 294 296.5 294H149.661ZM92 247.796L95.1991 235.018H152.527L149.328 247.796H92ZM117.593 199.636L120.792 186.858H190.917L187.718 199.636H117.593ZM205.453 115.111H269.359L269.845 111.176C270.715 102.018 268.233 94.0022 262.398 87.1278C256.571 80.2278 249.153 76.7778 240.145 76.7778C230.053 76.7778 222.166 79.5591 216.484 85.1217C210.802 90.6843 207.369 98.5511 206.183 108.722L205.453 115.111Z" fill="url(#paint1_linear_1_18)"/>
<defs>
<linearGradient id="paint0_linear_1_18" x1="428" y1="88.9817" x2="7.38306e-07" y2="339.018" gradientUnits="userSpaceOnUse">
<stop stop-color="#150016"/>
<stop offset="1" stop-color="#29104A"/>
</linearGradient>
<linearGradient id="paint1_linear_1_18" x1="92" y1="249.859" x2="334" y2="108.141" gradientUnits="userSpaceOnUse">
<stop stop-color="#150016"/>
<stop offset="1" stop-color="#29104A"/>
</linearGradient>
</defs>
</svg>
