<svg width="406" height="416" viewBox="0 0 406 416" fill="none" xmlns="http://www.w3.org/2000/svg">
<ellipse cx="203" cy="208" rx="203" ry="208" fill="url(#paint0_linear_11_2)"/>
<circle cx="202" cy="180" r="180" fill="#FFC857" fill-opacity="0.47"/>
<ellipse cx="200" cy="145" rx="146" ry="145" fill="#1A202C"/>
<path d="M139.697 220C136.662 220 134.139 218.835 132.127 216.506C130.116 214.176 129.299 211.469 129.675 208.383H156.705L165.431 172.778H184.466L197.819 118.283H138.753L140.761 101.217C141.261 97.345 142.926 94.1339 145.758 91.5839C148.602 89.0465 151.924 87.7778 155.724 87.7778H170.789L171.326 83.0556C172.56 72.5785 176.144 64.45 182.079 58.67C188.013 52.89 196.113 50 206.379 50C215.416 50 222.798 53.4944 228.523 60.4833C234.248 67.4722 236.675 75.6007 235.805 84.8689L235.454 87.7778H258.162C262.647 87.7778 266.355 89.4778 269.285 92.8778C272.215 96.2778 273.412 100.27 272.875 104.853L260.596 206.561C260.102 210.433 258.474 213.644 255.71 216.194C252.952 218.731 249.676 220 245.882 220H139.697ZM98 185.849L100.313 176.404H141.77L139.456 185.849H98ZM116.507 150.253L118.821 140.808H169.531L167.217 150.253H116.507ZM180.043 87.7778H226.256L226.607 84.8689C227.236 78.1004 225.441 72.1756 221.222 67.0944C217.008 61.9944 211.644 59.4444 205.129 59.4444C197.831 59.4444 192.128 61.5002 188.019 65.6117C183.911 69.7231 181.428 75.5378 180.57 83.0556L180.043 87.7778Z" fill="url(#paint1_linear_11_2)"/>
<defs>
<linearGradient id="paint0_linear_11_2" x1="406" y1="86.4868" x2="-4.96695" y2="320.801" gradientUnits="userSpaceOnUse">
<stop stop-color="#1A202C"/>
<stop offset="1" stop-color="#E2E8F0"/>
</linearGradient>
<linearGradient id="paint1_linear_11_2" x1="98" y1="187.374" x2="274.934" y2="86.0012" gradientUnits="userSpaceOnUse">
<stop stop-color="#1A202C"/>
<stop offset="1" stop-color="#FFC857"/>
</linearGradient>
</defs>
</svg>
