<svg width="360" height="360" viewBox="0 0 360 360" fill="none" xmlns="http://www.w3.org/2000/svg">
<circle cx="180" cy="180" r="180" fill="#FFC857" fill-opacity="0.47"/>
<ellipse cx="180" cy="180" rx="146" ry="145" fill="#1A202C"/>
<path d="M117.697 265C114.662 265 112.139 263.835 110.127 261.506C108.116 259.176 107.299 256.469 107.675 253.383H134.705L143.431 217.778H162.466L175.819 163.283H116.753L118.761 146.217C119.261 142.345 120.926 139.134 123.758 136.584C126.602 134.046 129.924 132.778 133.724 132.778H148.789L149.326 128.056C150.56 117.579 154.144 109.45 160.079 103.67C166.013 97.89 174.113 95 184.379 95C193.416 95 200.798 98.4944 206.523 105.483C212.248 112.472 214.675 120.601 213.805 129.869L213.454 132.778H236.162C240.647 132.778 244.355 134.478 247.285 137.878C250.215 141.278 251.412 145.27 250.875 149.853L238.596 251.561C238.102 255.433 236.474 258.644 233.71 261.194C230.952 263.731 227.676 265 223.882 265H117.697ZM76 230.849L78.3134 221.404H119.77L117.456 230.849H76ZM94.5073 195.253L96.8207 185.808H147.531L145.217 195.253H94.5073ZM158.043 132.778H204.256L204.607 129.869C205.236 123.1 203.441 117.176 199.222 112.094C195.008 106.994 189.644 104.444 183.129 104.444C175.831 104.444 170.128 106.5 166.019 110.612C161.911 114.723 159.428 120.538 158.57 128.056L158.043 132.778Z" fill="url(#paint0_linear_12_3)"/>
<defs>
<linearGradient id="paint0_linear_12_3" x1="76" y1="232.374" x2="252.934" y2="131.001" gradientUnits="userSpaceOnUse">
<stop stop-color="#1A202C"/>
<stop offset="1" stop-color="#FFC857"/>
</linearGradient>
</defs>
</svg>
